<?xml version="1.0" standalone="no"?>
<!DOCTYPE svg PUBLIC "-//W3C//DTD SVG 20010904//EN"
 "http://www.w3.org/TR/2001/REC-SVG-20010904/DTD/svg10.dtd">
<svg version="1.0" xmlns="http://www.w3.org/2000/svg"
 width="1920.000000pt" height="944.000000pt" viewBox="0 0 1920.000000 944.000000"
 preserveAspectRatio="xMidYMid meet">

<g transform="translate(0.000000,944.000000) scale(0.100000,-0.100000)"
fill="#000000" stroke="none">
<path d="M0 4720 l0 -4720 9600 0 9600 0 0 4720 0 4720 -9600 0 -9600 0 0
-4720z m13080 1281 c19 -6 46 -20 60 -30 l25 -20 -28 -29 -29 -30 -46 21 c-65
29 -163 28 -226 -2 -112 -55 -174 -207 -146 -362 l11 -62 -35 -36 -35 -35 -17
39 c-12 26 -19 76 -22 143 -4 87 -1 113 18 173 39 121 122 203 239 236 51 14
176 11 231 -6z m2010 0 c19 -6 46 -20 60 -30 l25 -20 -28 -29 -29 -30 -46 21
c-65 29 -163 28 -226 -2 -112 -55 -174 -207 -146 -362 l11 -62 -35 -36 -35
-35 -17 39 c-12 26 -19 76 -22 143 -4 87 -1 113 18 173 39 121 122 203 239
236 51 14 176 11 231 -6z m2068 0 c18 -10 22 -20 22 -61 l0 -49 -47 21 c-94
41 -244 22 -275 -35 -6 -12 -11 -38 -11 -59 0 -53 35 -88 145 -145 159 -82
218 -147 218 -239 0 -44 -28 -111 -56 -136 -36 -31 -114 -59 -182 -65 -69 -5
-192 16 -219 38 -12 11 -19 90 -8 101 3 3 27 -6 53 -19 64 -32 152 -45 211
-32 73 16 101 47 101 113 0 51 -43 94 -151 152 -177 93 -215 139 -207 245 6
88 68 152 173 180 42 11 206 4 233 -10z m-15260 -366 c78 -203 142 -375 142
-383 0 -9 -13 -12 -47 -10 l-47 3 -28 75 c-15 41 -35 90 -43 108 l-15 33 -157
-3 -158 -3 -39 -107 -39 -108 -48 0 c-27 0 -49 3 -49 6 0 4 61 165 134 358 74
193 140 364 145 379 10 26 14 28 58 25 l48 -3 143 -370z m1347 330 l0 -40
-107 -3 -108 -3 -2 -337 -3 -337 -45 0 -45 0 -3 337 -2 337 -108 3 -107 3 -3
43 -3 42 268 -2 268 -3 0 -40z m791 17 c112 -58 144 -185 75 -294 -19 -29 -44
-52 -72 -66 -24 -12 -50 -25 -57 -30 -12 -8 49 -126 160 -309 l20 -33 -45 0
-45 0 -96 170 c-59 105 -96 181 -96 199 0 26 4 29 40 34 23 3 52 13 66 22 85
55 84 195 -1 231 -21 8 -69 14 -120 14 l-85 0 0 -335 0 -335 -45 0 -45 0 0
381 0 381 153 -4 c130 -4 158 -7 193 -26z m719 -357 l0 -380 -45 0 -45 0 -3
383 -2 383 47 -3 48 -3 0 -380z m860 350 c26 -17 56 -46 66 -65 22 -41 24
-108 5 -153 -14 -34 -78 -97 -99 -97 -7 0 13 -13 43 -28 85 -42 120 -110 106
-207 -10 -60 -58 -122 -121 -153 -44 -23 -66 -26 -197 -30 l-148 -5 0 388 0
387 148 -3 c145 -4 150 -5 197 -34z m995 -5 l0 -40 -195 0 -195 0 0 40 0 40
195 0 195 0 0 -40z m887 -265 c45 -165 83 -309 83 -319 0 -11 2 -17 5 -14 4 4
185 623 185 634 0 2 20 4 44 4 34 0 46 -4 50 -17 24 -81 166 -610 167 -622 0
-9 17 49 38 129 21 80 60 227 87 328 l48 182 48 0 c26 0 48 -4 48 -8 0 -4 -47
-175 -105 -380 -58 -205 -105 -375 -105 -377 0 -3 -24 -5 -54 -5 -43 0 -56 4
-60 18 -41 139 -156 563 -156 577 0 10 -2 16 -5 13 -3 -2 -36 -117 -75 -254
-39 -137 -77 -273 -85 -301 l-16 -53 -50 0 c-44 0 -51 3 -59 25 -5 14 -55 181
-110 371 -56 190 -104 352 -107 360 -5 12 4 15 47 12 l53 -3 84 -300z m1343
-80 l0 -385 -45 0 -45 0 0 385 0 385 45 0 45 0 0 -385z m970 340 l0 -45 -110
0 -110 0 0 -340 0 -340 -45 0 -45 0 0 340 0 340 -110 0 -110 0 0 45 0 45 265
0 265 0 0 -45z m530 -125 l0 -170 195 0 195 0 0 170 0 170 45 0 45 0 0 -386 0
-385 -42 3 -43 3 -3 173 -2 172 -195 0 -195 0 0 -175 0 -175 -45 0 -45 0 0
385 0 385 45 0 45 0 0 -170z m1673 141 c73 -36 102 -86 102 -177 0 -64 -3 -77
-30 -115 -19 -27 -50 -54 -83 -70 -42 -23 -48 -29 -32 -34 10 -3 32 -23 48
-43 38 -50 182 -281 182 -293 0 -5 -22 -9 -49 -9 l-50 0 -80 133 c-43 72 -90
142 -104 155 -28 26 -76 42 -129 42 l-38 0 0 -165 0 -165 -45 0 -45 0 0 386 0
386 153 -4 c135 -3 157 -6 200 -27z m2123 -6 c105 -66 115 -200 20 -283 -20
-17 -42 -32 -49 -32 -7 0 13 -13 43 -28 91 -45 127 -130 99 -230 -16 -57 -77
-122 -134 -141 -22 -7 -104 -15 -182 -18 l-143 -6 0 388 0 387 149 -4 c144 -4
151 -5 197 -33z m2204 -10 l0 -45 -110 0 -110 0 0 -340 0 -340 -45 0 -45 0 0
340 0 340 -110 0 -110 0 0 45 0 45 265 0 265 0 0 -45z m-3041 -239 c20 -112 8
-209 -36 -302 -33 -71 -116 -147 -185 -170 -97 -33 -257 -20 -316 24 l-23 18
30 28 30 29 43 -18 c49 -20 135 -23 193 -7 57 16 109 64 142 130 26 53 28 66
28 179 1 122 1 123 30 153 26 27 31 29 41 15 7 -9 17 -45 23 -79z m2010 0 c20
-112 8 -209 -36 -302 -33 -71 -116 -147 -185 -170 -97 -33 -257 -20 -316 24
l-23 18 30 28 30 29 43 -18 c49 -20 135 -23 193 -7 57 16 109 64 142 130 26
53 28 66 28 179 1 122 1 123 30 153 26 27 31 29 41 15 7 -9 17 -45 23 -79z
m-8729 -96 l0 -40 -135 0 -135 0 0 -130 0 -130 155 0 155 0 0 -45 0 -45 -200
0 -200 0 0 215 0 215 180 0 180 0 0 -40z"/>
<path d="M1646 5731 c-33 -91 -61 -172 -64 -178 -3 -10 25 -13 122 -13 69 0
126 3 126 8 0 4 -28 84 -63 178 l-62 170 -59 -165z"/>
<path d="M5360 5801 l0 -121 58 0 c124 0 182 42 182 130 0 37 -6 56 -24 77
-23 26 -29 28 -120 31 l-96 4 0 -121z"/>
<path d="M5360 5466 l0 -136 85 0 c137 0 195 38 195 129 0 98 -45 131 -186
139 l-94 5 0 -137z"/>
<path d="M11750 5785 l0 -135 77 0 c131 0 193 47 193 147 0 92 -45 123 -180
123 l-90 0 0 -135z"/>
<path d="M13880 5801 l0 -121 56 0 c123 0 184 43 184 130 0 37 -6 56 -24 77
-23 26 -29 28 -120 31 l-96 4 0 -121z"/>
<path d="M13880 5465 l0 -135 85 0 c52 0 99 6 120 14 68 29 96 126 55 193 -24
40 -94 63 -192 63 l-68 0 0 -135z"/>
</g>
</svg>
