<?xml version="1.0" standalone="no"?>
<!DOCTYPE svg PUBLIC "-//W3C//DTD SVG 20010904//EN"
 "http://www.w3.org/TR/2001/REC-SVG-20010904/DTD/svg10.dtd">
<svg version="1.0" xmlns="http://www.w3.org/2000/svg"
 width="512.000000pt" height="512.000000pt" viewBox="0 0 512.000000 512.000000"
 preserveAspectRatio="xMidYMid meet">

<g transform="translate(0.000000,512.000000) scale(0.100000,-0.100000)"
fill="#000000" stroke="none">
<path d="M1160 5024 c1 -289 115 -551 328 -756 95 -91 159 -137 267 -190 161
-81 285 -107 537 -115 l188 -6 0 -420 0 -419 -81 80 c-158 158 -319 238 -534
263 -113 13 -178 2 -246 -42 -82 -52 -129 -141 -129 -242 0 -51 6 -76 31 -126
55 -110 150 -161 301 -161 l78 0 0 85 0 85 -86 0 c-84 0 -87 1 -119 33 -59 59
-58 116 1 175 l35 35 92 -5 c318 -18 594 -267 647 -583 7 -46 10 -180 8 -397
l-3 -327 -43 19 c-23 11 -73 45 -110 76 -181 154 -404 184 -611 83 -191 -94
-303 -275 -303 -489 0 -215 103 -377 347 -542 l99 -68 -597 0 -597 0 0 -80 0
-80 700 0 700 0 0 -75 c0 -100 -27 -170 -91 -236 -65 -67 -123 -92 -229 -99
l-85 -5 -3 -82 -3 -83 68 0 c142 0 264 50 363 150 99 99 150 221 150 362 l0
68 80 0 81 0 -3 -288 -3 -289 -30 -49 c-19 -30 -49 -60 -79 -79 -49 -30 -51
-30 -213 -33 l-163 -3 0 -85 0 -84 143 0 c210 0 310 32 401 130 102 109 116
170 116 513 l0 268 83 -3 82 -3 3 -82 3 -83 79 0 80 0 0 85 0 86 83 -3 82 -3
6 -80 c6 -87 21 -126 70 -174 62 -63 75 -66 297 -69 l202 -3 0 80 0 80 -181 3
-181 3 -24 28 c-19 22 -24 39 -24 83 l0 54 620 0 620 0 0 80 0 80 -597 0 -597
0 99 68 c244 165 347 327 347 542 0 214 -112 395 -303 489 -205 101 -430 71
-609 -81 -66 -56 -118 -88 -143 -88 -12 0 -14 80 -13 528 l1 527 215 6 c225 7
275 15 406 64 260 98 482 305 599 559 58 125 86 243 92 395 l6 133 -289 -5
c-298 -5 -346 -11 -474 -55 -187 -65 -379 -206 -501 -367 l-44 -59 -8 70 c-14
119 -2 560 17 629 82 292 340 506 629 523 100 6 126 -3 157 -54 24 -38 26 -86
4 -124 -28 -46 -63 -60 -153 -60 l-81 0 0 -86 0 -87 99 5 c116 6 188 34 242
95 98 113 97 286 -4 391 -74 78 -173 103 -319 83 -209 -30 -380 -119 -526
-276 l-72 -77 0 181 0 181 -80 0 -80 0 -2 -251 -3 -251 -34 48 c-120 170 -314
319 -505 387 -150 53 -192 58 -493 64 l-283 5 0 -98z m587 -89 c192 -40 341
-123 474 -261 77 -81 113 -132 162 -231 41 -80 83 -218 64 -206 -7 4 -101 73
-209 155 -109 81 -201 148 -205 148 -5 -1 -29 -29 -55 -64 l-46 -63 184 -138
c101 -75 184 -140 184 -143 0 -3 -51 -2 -112 1 -339 17 -628 208 -774 512 -43
88 -84 223 -84 278 l0 27 174 0 c115 0 198 -5 243 -15z m2043 -917 c0 -18 -9
-69 -20 -113 -79 -313 -339 -573 -655 -655 -46 -12 -129 -24 -195 -27 l-115
-5 232 174 233 175 -50 67 -51 66 -242 -182 c-133 -99 -247 -185 -254 -190
-20 -16 24 128 64 206 95 192 240 333 434 425 141 68 247 87 487 90 l132 1 0
-32z m-1680 -1989 c30 -14 86 -52 124 -83 122 -101 207 -131 350 -124 111 6
184 32 264 94 118 93 135 104 191 125 82 30 203 24 288 -15 67 -30 147 -105
178 -167 44 -83 55 -185 31 -274 -21 -81 -50 -126 -128 -201 -246 -236 -581
-340 -985 -306 -224 19 -396 77 -566 189 -91 59 -213 176 -240 228 -112 220
-16 460 222 551 23 9 69 13 126 11 73 -2 100 -7 145 -28z"/>
<path d="M2222 1655 c-17 -36 -32 -69 -32 -74 0 -5 28 -20 63 -34 193 -77 421
-77 614 0 l62 25 -37 74 c-27 56 -40 73 -52 68 -174 -73 -338 -81 -496 -24
-32 11 -66 23 -74 26 -11 4 -25 -14 -48 -61z"/>
<path d="M330 990 l0 -80 85 0 85 0 0 80 0 80 -85 0 -85 0 0 -80z"/>
<path d="M4620 990 l0 -80 85 0 85 0 0 80 0 80 -85 0 -85 0 0 -80z"/>
<path d="M2732 443 c3 -130 5 -142 34 -204 55 -116 170 -206 293 -229 29 -5
134 -10 233 -10 l179 0 -3 83 -3 82 -205 5 c-225 5 -237 8 -296 72 -58 61 -68
92 -72 221 l-4 117 -80 0 -80 0 4 -137z"/>
<path d="M1327 494 c-4 -4 -7 -43 -7 -86 l0 -78 85 0 86 0 -3 83 -3 82 -75 3
c-42 1 -79 0 -83 -4z"/>
<path d="M3637 164 c-4 -4 -7 -43 -7 -86 l0 -78 85 0 86 0 -3 82 -3 83 -75 3
c-42 1 -79 0 -83 -4z"/>
</g>
</svg>
