<?xml version="1.0" encoding="utf-8"?>
<!-- Svg Vector Icons : http://www.onlinewebfonts.com/icon -->
<!DOCTYPE svg PUBLIC "-//W3C//DTD SVG 1.1//EN" "http://www.w3.org/Graphics/SVG/1.1/DTD/svg11.dtd">
<svg version="1.1" xmlns="http://www.w3.org/2000/svg" xmlns:xlink="http://www.w3.org/1999/xlink" x="0px" y="0px" viewBox="0 0 256 256" enable-background="new 0 0 256 256" xml:space="preserve">
<metadata> Svg Vector Icons : http://www.onlinewebfonts.com/icon </metadata>
<g><g><g><path fill="#000000" d="M52.9,21c-2.4,0.6-6.2,1.9-8.4,2.8c-9.2,3.6-26.5,13.1-30.4,16.6c-7.8,7-4.1,19.7,6.3,21.7c3.6,0.7,6.3-0.1,12.8-3.9C45.6,51,57.7,45.4,61.2,45.4c3.2,0,11.5,4.8,20.3,11.8c5.3,4.2,5.5,4.3,8.5,4.9c3.9,0.7,6.6-0.1,12.4-3.8c11.9-7.7,22.6-12.8,26.5-12.9c1.2,0,3.5,0.5,5.3,1.2c4.5,1.7,16,7.6,21.2,10.9c6.1,3.8,8.2,4.7,11.5,4.8c3.7,0,6.2-1.2,12-5.9c5.6-4.5,11.3-8.1,15.7-9.8c4.3-1.8,7-1.4,12.9,1.5c5.1,2.5,10.9,6.2,15.6,9.8c4.1,3.2,6.9,4.4,10.3,4.4c4.9,0,8.8-2.3,11-6.4c2.7-5,2.1-10.5-1.8-14.7c-5-5.4-19.3-14.5-29-18.3c-14-5.5-26.2-3.3-42.5,7.5c-2.7,1.8-5,3.2-5.3,3.2c-0.2,0-2.8-1.3-5.7-2.9c-17.3-9.6-28.6-12.5-38.7-9.9c-7,1.8-14.3,4.9-23.7,10.3c-2.4,1.4-4.4,2.5-4.5,2.5s-2.6-1.6-5.5-3.5C73.7,20.8,63.8,18.2,52.9,21z"/><path fill="#000000" d="M126.8,63.6c-1.7,0.4-4,1.6-5.5,2.9c-2.3,1.9-32.5,40.4-33.3,42.4c-1.7,4.3-0.6,9.9,2.6,13.3c4.7,4.8,12,5.3,16.8,1.2c0.8-0.7,2.9-3.1,4.5-5.3l3.1-4l0.1,18.4c0,10,0,26.5,0,36.6l-0.1,18.3l-2.2-3.4c-3.2-4.9-5.3-7.1-8.1-8.4c-3-1.4-7.2-1.6-10-0.4c-2.4,1-5.4,3.9-6.5,6.4c-1.2,2.6-1.2,7.2,0,9.8c1.3,3,30.2,39.6,32.9,41.7c1.3,1,3.4,2.2,4.7,2.6c3.6,1.1,5.7,0.2,9.6-4c9.6-10.7,32.8-37.5,33.5-38.7c0.4-0.8,0.8-2.7,1-4.2c0.5-5.1-2.5-9.7-7.6-12c-1.7-0.8-3-0.9-6-0.8c-4.8,0.2-6.4,1.3-11.5,7l-3.6,4.1l-0.1-18.2c0-10,0-26.3,0-36.1l0.1-18l3.1,4.2c3.5,4.8,5.3,6.3,8.7,7.4c4.4,1.5,9.5,0.4,12.9-3c2.8-2.6,3.8-5,3.8-9.2c0-3.3-0.1-4-1.5-6.2c-3.5-5.6-28.8-40.6-30.3-41.8c-0.9-0.8-2.3-1.7-3.1-2C132.6,63.5,128.6,63.1,126.8,63.6z"/><path fill="#000000" d="M22.8,75.9c-5.8,1.4-9.6,6.4-9.6,12.7c0,5.4,3.9,10.7,9,12c1.3,0.3,9.5,0.5,24,0.4c21.6-0.1,22.1-0.1,24-1.2c2.4-1.3,4.9-4,6-6.5c1-2.5,1-7.7-0.1-9.9c-1.6-3.2-3.3-4.9-5.9-6.3l-2.6-1.3L46,75.6C34.1,75.5,23.7,75.7,22.8,75.9z"/><path fill="#000000" d="M188.9,76.2c-4.7,1.5-8.7,7-8.7,12.3c0,2.7,1.8,6.7,3.8,8.7c3.9,3.7,2.8,3.6,27.4,3.7c18.9,0.1,22.4,0.1,24.4-0.6c5.2-1.7,8.4-6.3,8.4-12c0-5.2-2.4-9-7.1-11.5c-2-1.1-2.4-1.1-23.9-1.2C194.8,75.5,190.9,75.6,188.9,76.2z"/><path fill="#000000" d="M20.5,128.3c-4.6,2.1-7.3,6.3-7.3,11.4c-0.1,5.2,2.8,9.6,7.5,11.8c2.1,1,3.1,1,22.8,1.2c13.6,0.1,21.5,0,23.2-0.4c7.5-1.6,12-8.8,9.8-16c-1-3.4-3.5-6.4-6.9-7.9l-2.5-1.2H45.1H22.9L20.5,128.3z"/><path fill="#000000" d="M188.7,127.8c-2.2,0.7-5.8,4-7,6.4c-1.4,2.8-1.7,6.1-0.8,9.3c1,3.4,3,5.8,6.3,7.6l2.7,1.5H212c25.3,0,25.1,0.1,28.8-4c2.7-2.9,3.4-4.9,3.4-8.7c0-5.4-2.7-9.6-7.4-11.7c-2.1-1-3.1-1-24.4-1C198.4,127.2,189.7,127.4,188.7,127.8z"/><path fill="#000000" d="M22.8,178.8c-2.8,0.6-6.1,3-7.5,5.3c-4.2,6.5-2.1,14.9,4.6,18.5c2,1.1,2.5,1.1,24.5,1.2c22.2,0.1,22.5,0.1,25-0.9c5-2.2,8.4-7.9,7.6-13.2c-0.5-3.6-3-7.3-6-9.2c-1.4-0.8-3.4-1.7-4.4-1.9C64,178.2,24.7,178.3,22.8,178.8z"/><path fill="#000000" d="M189.5,179c-4.3,1.2-7.7,4.7-8.8,9.2c-1.5,6.1,1.5,12,7.4,14.7c2.1,1,3.1,1,23.9,1c13.4,0,22.4-0.2,23.5-0.5c2.8-0.8,5.9-3.4,7.4-6.3c1.1-2.1,1.4-3.2,1.4-5.9c0-4.1-1.1-6.5-4.1-9.3c-3.8-3.5-4.5-3.6-27.9-3.5C197.7,178.4,191.1,178.6,189.5,179z"/></g></g></g>
</svg>