<?xml version="1.0" standalone="no"?>
<!DOCTYPE svg PUBLIC "-//W3C//DTD SVG 20010904//EN"
 "http://www.w3.org/TR/2001/REC-SVG-20010904/DTD/svg10.dtd">
<svg version="1.0" xmlns="http://www.w3.org/2000/svg"
 width="980.000000pt" height="982.000000pt" viewBox="0 0 980.000000 982.000000"
 preserveAspectRatio="xMidYMid meet">

<g transform="translate(0.000000,982.000000) scale(0.100000,-0.100000)"
fill="#000000" stroke="none">
<path d="M2502 9770 c-88 -44 -143 -97 -200 -193 l-33 -55 -6 -1028 -6 -1029
44 -80 c82 -150 165 -214 307 -235 52 -9 92 -9 145 0 139 21 220 81 302 225
l45 80 0 1020 0 1020 -45 80 c-52 90 -90 133 -155 175 -64 40 -141 60 -236 60
-75 0 -88 -3 -162 -40z"/>
<path d="M6340 9774 c-86 -43 -149 -103 -201 -189 l-37 -60 -7 -1026 -7 -1027
43 -83 c98 -190 250 -270 452 -239 144 22 233 89 306 230 l41 78 0 1019 0
1020 -42 77 c-53 97 -134 175 -215 207 -42 16 -86 23 -158 26 -99 5 -100 4
-175 -33z"/>
<path d="M780 9000 c-162 -7 -210 -19 -332 -82 -184 -95 -333 -268 -404 -469
-26 -72 -27 -85 -36 -419 -6 -206 -8 -1763 -5 -3875 l4 -3530 51 -103 c29 -57
66 -124 84 -150 75 -109 198 -217 318 -277 115 -58 154 -66 350 -75 102 -5
1335 -9 2740 -9 l2555 0 -180 92 c-263 136 -409 232 -630 417 l-120 100 -1900
0 c-1045 1 -2008 5 -2141 9 -238 8 -241 8 -292 36 -67 36 -151 120 -187 186
l-28 52 -8 396 c-4 218 -8 1257 -8 2309 l-1 1912 3985 0 3985 0 0 -204 0 -205
101 -66 c134 -87 274 -194 401 -305 57 -49 107 -90 112 -90 12 0 -1 3447 -13
3621 -7 104 -14 139 -40 203 -86 215 -254 385 -486 491 l-80 37 -731 5 -731 6
-6 -438 c-4 -241 -7 -605 -7 -809 l0 -371 -48 -85 c-79 -141 -209 -262 -336
-314 -44 -17 -73 -20 -207 -21 l-155 0 -75 37 c-162 81 -297 235 -337 388 -13
46 -16 187 -19 833 l-4 777 -1320 0 c-725 0 -1320 -1 -1320 -2 -1 -2 -5 -367
-8 -813 l-6 -810 -38 -64 c-101 -172 -218 -280 -352 -325 -66 -23 -223 -31
-314 -17 -185 29 -383 207 -447 401 -17 51 -18 115 -22 843 l-3 787 -582 -2
c-320 -1 -647 -4 -727 -8z"/>
<path d="M6892 5279 c-205 -18 -475 -86 -702 -176 -595 -236 -1089 -687 -1380
-1258 -365 -714 -383 -1549 -51 -2285 281 -621 790 -1107 1431 -1363 342 -137
569 -178 975 -178 276 0 435 16 635 67 194 48 333 100 525 194 653 321 1134
880 1359 1580 92 285 124 537 112 895 -9 303 -41 481 -133 750 -55 162 -200
457 -290 593 -146 217 -366 462 -548 608 -311 249 -712 441 -1093 524 -208 46
-616 70 -840 49z m489 -379 c434 -44 851 -216 1194 -493 102 -83 303 -288 382
-393 185 -244 324 -527 399 -814 166 -639 24 -1355 -374 -1886 -78 -104 -281
-315 -396 -413 -318 -270 -769 -457 -1211 -502 -146 -14 -421 -7 -555 16 -469
79 -887 292 -1224 623 -454 445 -689 995 -689 1612 0 457 127 868 384 1252
113 167 313 384 474 513 320 257 730 431 1130 480 137 16 350 18 486 5z"/>
<path d="M6970 3455 l0 -1035 825 0 825 0 0 210 0 210 -612 2 -613 3 -3 823
-2 822 -210 0 -210 0 0 -1035z"/>
<path d="M1590 4565 l0 -555 555 0 555 0 0 555 0 555 -555 0 -555 0 0 -555z
m900 0 l0 -345 -345 0 -345 0 0 345 0 345 345 0 345 0 0 -345z"/>
<path d="M3160 4565 l0 -555 555 0 555 0 0 555 0 555 -555 0 -555 0 0 -555z
m900 0 l0 -345 -345 0 -345 0 0 345 0 345 345 0 345 0 0 -345z"/>
<path d="M4732 4645 c2 -281 8 -479 13 -484 6 -6 45 39 103 120 l92 130 0 248
0 249 253 4 254 3 49 32 c27 17 94 60 149 94 55 34 104 66 110 71 5 4 -224 8
-509 8 l-519 0 5 -475z"/>
<path d="M1590 3125 l0 -555 555 0 555 0 0 555 0 555 -555 0 -555 0 0 -555z
m900 0 l0 -345 -345 0 -345 0 0 345 0 345 345 0 345 0 0 -345z"/>
<path d="M3160 3125 l0 -555 555 0 555 0 0 555 0 555 -555 0 -555 0 0 -555z
m900 0 l0 -345 -345 0 -345 0 0 345 0 345 345 0 345 0 0 -345z"/>
<path d="M1590 1695 l0 -555 555 0 555 0 0 555 0 555 -555 0 -555 0 0 -555z
m900 0 l0 -345 -345 0 -345 0 0 345 0 345 345 0 345 0 0 -345z"/>
<path d="M3160 1695 l0 -555 555 0 555 0 0 555 0 555 -555 0 -555 0 0 -555z
m900 0 l0 -345 -345 0 -345 0 0 345 0 345 345 0 345 0 0 -345z"/>
</g>
</svg>
