<svg width="838" height="175" viewBox="0 0 838 175" fill="none" xmlns="http://www.w3.org/2000/svg">
<path d="M0 87.3317V174.665L69.7333 174.398L139.333 173.998V157.332V140.665L87.0667 140.265L34.6667 139.998V122.665V105.332L87.0667 105.065L139.333 104.665L139.733 87.7317L140.133 70.665L87.7333 70.3984L35.3333 69.9984L34.9333 52.265L34.5333 34.665H87.2H139.867L139.6 17.5984L139.333 0.66503L69.7333 0.26503L0 -0.00163671V87.3317Z" fill="white"/>
<path d="M174.667 87.3317V174.665H192H209.334V157.332V139.998H244H278.667V157.332V174.665H296H313.334V157.332V139.998H296H278.667V122.665V105.332H296H313.334V69.9984V34.665H296H278.667V17.3317V-0.00163671H226.667H174.667V87.3317ZM278.667 69.9984V105.332H244H209.334V69.9984V34.665H244H278.667V69.9984Z" fill="white"/>
<path d="M349.333 87.3317V174.665H366.666H384V157.332V139.998H418.666H453.333V157.332V174.665H470.666H488V157.332V139.998H470.666H453.333V122.665V105.332H470.666H488V69.9984V34.665H470.666H453.333V17.3317V-0.00163671H401.333H349.333V87.3317ZM453.333 69.9984V105.332H418.666H384V69.9984V34.665H418.666H453.333V69.9984Z" fill="white"/>
<path d="M558.666 17.3317V34.5317L541.066 34.9317C531.333 35.1984 523.466 35.7317 523.733 36.265C523.866 36.9317 524 60.3984 524 88.665V139.998H541.333H558.666V157.332V174.665H593.333H628V157.332V139.998H645.333H662.666V87.3317V34.665H645.333H628V17.3317V-0.00163671H593.333H558.666V17.3317ZM628 87.3317V139.998H593.333H558.666V87.3317V34.665H593.333H628V87.3317Z" fill="white"/>
<path d="M698.266 0.932152C697.733 1.33215 697.333 40.6655 697.333 88.2655V174.799L715.066 174.399L732.666 173.999L733.066 156.932L733.466 139.999H768H802.666V157.332V174.665H820H837.333V157.332V139.999H820H802.666V122.665V105.332H820H837.333V69.9988V34.6655H820H802.666V17.3322V-0.00118099H750.933C722.4 -0.00118099 698.666 0.398819 698.266 0.932152ZM802.666 69.9988V105.332H768H733.333V69.9988V34.6655H768H802.666V69.9988Z" fill="white"/>
</svg>
