<?xml version="1.0" standalone="no"?>
<!DOCTYPE svg PUBLIC "-//W3C//DTD SVG 20010904//EN"
 "http://www.w3.org/TR/2001/REC-SVG-20010904/DTD/svg10.dtd">
<svg version="1.0" xmlns="http://www.w3.org/2000/svg"
 width="225.000000pt" height="225.000000pt" viewBox="0 0 225.000000 225.000000"
 preserveAspectRatio="xMidYMid meet">

<g transform="translate(0.000000,225.000000) scale(0.100000,-0.100000)"
fill="#000000" stroke="none">
<path d="M433 2150 c-64 -38 -72 -107 -21 -165 l31 -36 -17 -92 c-95 -516 -95
-948 0 -1464 l17 -92 -31 -36 c-53 -59 -40 -135 28 -170 44 -23 73 -18 121 18
42 31 47 32 99 25 30 -4 142 -12 249 -18 190 -10 509 -1 671 19 64 8 66 7 109
-26 48 -36 77 -41 121 -18 68 35 81 111 28 170 l-31 36 17 92 c95 516 95 948
0 1464 l-17 92 31 36 c53 59 40 135 -28 170 -44 23 -73 18 -121 -18 -42 -31
-47 -32 -99 -25 -30 4 -142 12 -249 18 -190 10 -509 1 -671 -19 -64 -8 -66 -7
-109 26 -50 38 -82 41 -128 13z m107 -85 l35 -34 130 16 c231 30 831 21 947
-13 10 -3 32 9 56 31 44 39 57 42 84 18 24 -22 24 -25 -20 -76 l-38 -44 26
-134 c88 -439 88 -969 0 -1408 l-26 -134 38 -44 c44 -51 44 -50 21 -75 -23
-26 -41 -23 -85 18 -31 27 -45 34 -66 30 -211 -42 -901 -42 -1044 0 -10 3 -32
-9 -56 -31 -44 -39 -57 -42 -84 -18 -24 22 -24 25 20 76 l38 44 -26 134 c-88
439 -88 969 0 1408 l26 134 -38 44 c-44 51 -44 50 -21 75 24 26 43 22 83 -17z"/>
<path d="M741 1583 l-25 -20 23 -44 c62 -119 148 -178 271 -187 l70 -5 0 -218
c0 -204 -1 -219 -18 -219 -10 0 -42 -12 -71 -26 -58 -29 -105 -88 -99 -126 l3
-23 216 -3 c189 -2 218 0 230 14 31 38 -73 148 -152 160 l-39 7 0 126 0 126
78 0 c64 0 87 5 134 28 59 29 119 88 153 151 30 55 10 69 -104 74 -103 5 -143
-5 -207 -54 -24 -19 -46 -34 -49 -34 -3 0 -5 16 -5 35 0 73 -77 178 -164 223
-71 36 -209 44 -245 15z m219 -76 c45 -24 108 -92 97 -104 -10 -9 -92 -4 -122
7 -28 11 -102 75 -116 102 -9 16 -5 18 44 18 37 0 68 -7 97 -23z m474 -176 c7
-12 -58 -77 -97 -97 -44 -23 -157 -32 -157 -12 0 29 79 90 139 109 36 10 109
11 115 0z m-215 -525 c17 -9 31 -20 31 -24 0 -4 -59 -6 -131 -4 -137 3 -149 9
-73 38 47 17 129 12 173 -10z"/>
</g>
</svg>
