<svg width="844" height="224" viewBox="0 0 844 224" fill="none" xmlns="http://www.w3.org/2000/svg">
<path d="M720.6 1.13528C771.8 6.06862 815.667 32.8686 834.2 70.7353C841.267 85.2686 843.533 95.4019 843.533 112.469C843.533 128.335 840.733 140.335 834.067 153.802C817.267 187.135 782.733 211.002 737.267 220.735C727 223.002 708.067 223.135 421.667 223.135C129.667 223.135 116.467 223.002 105.667 220.602C79.3999 214.869 58.0665 205.135 39.9332 190.469C21.1332 175.402 7.5332 155.135 2.19987 134.469C-0.466799 124.202 -0.733456 102.202 1.53321 92.4686C13.2665 43.5353 61.3999 7.13525 121.933 1.26859C138.733 -0.331415 703.533 -0.464716 720.6 1.13528Z" fill="white"/>
<path d="M117.533 11.9351C80.3335 17.4018 49.4001 33.8018 29.6668 58.3351C-2.06652 97.9351 5.00014 149.135 46.8668 182.735C65.6668 197.802 90.3335 208.202 115.533 211.668C129.933 213.668 713.4 213.668 727.8 211.668C762.067 207.002 795 189.402 813.8 165.935C835.534 139.135 839.667 105.402 825.134 75.8018C809.8 45.0018 780.6 24.3351 737 13.5351C728.334 11.4018 706.6 11.2684 426.333 11.0018C260.6 10.8684 121.667 11.2684 117.533 11.9351ZM625.133 90.6018C646.2 140.068 651 151.535 651 153.002C651 153.802 649.4 154.468 647.533 154.468C644.867 154.468 643.667 153.268 641.4 148.068C639.933 144.602 637.4 138.735 635.667 135.135C634.067 131.402 629.267 119.935 625 109.402C619.667 96.2018 616.6 90.4685 615.4 90.7351C613.533 91.1351 611 96.8685 593.667 138.468C587.4 153.535 585.667 155.802 581 153.935C579.133 153.268 580.6 148.602 589.667 128.468C591 125.535 593.667 119.268 595.667 114.468C597.667 109.668 600.6 102.735 602.2 99.1351C603.933 95.4018 607.267 87.5351 609.8 81.5351C612.333 75.4018 614.867 70.7351 615.667 70.8684C616.333 71.1351 620.6 79.9351 625.133 90.6018ZM153.667 74.3351C153.667 78.0684 150.867 78.6018 131.667 78.4685C122.2 78.3351 113.267 78.3351 112.067 78.3351C109.933 78.4685 109.667 80.0685 109.667 93.1351V107.802L131.4 108.068C152.6 108.468 153 108.468 153.4 111.402C153.8 114.468 153.533 114.468 138.733 114.735C124.733 115.002 117.8 115.268 112.067 115.668C109.933 115.802 109.667 117.668 109.667 135.135V154.468H106.333H103V113.135V71.8018H128.333C152.333 71.8018 153.667 71.9351 153.667 74.3351ZM233.133 74.4684C241.533 78.6018 246.2 86.3351 246.067 96.6018C246.067 101.135 245.133 106.335 243.933 108.602C241.4 113.535 235.267 119.268 231.4 120.468C229.667 120.868 228.333 122.202 228.333 123.135C228.333 124.202 232.2 131.002 237 138.335C241.8 145.668 245.667 152.335 245.667 153.135C245.667 154.735 240.467 154.868 238.067 153.402C235.133 151.535 217.533 121.802 217.933 119.268C218.2 117.535 220.2 116.335 225 115.135C232.333 113.268 235.533 110.068 237.8 102.468C239.8 95.6685 238.333 88.6018 233.667 83.4018C229.933 79.2685 229.8 79.1351 215 78.4685C206.733 78.0684 199.533 78.0684 198.867 78.4685C198.2 79.0018 197.533 96.0685 197.4 116.468L197 153.802H193.667H190.333L189.933 112.735L189.667 71.8018H208.6C224.867 71.8018 228.2 72.2018 233.133 74.4684ZM333.667 74.4684C333.667 77.0018 332.733 77.1351 308.333 77.1351C283.933 77.1351 283 77.0018 283 74.4684C283 71.9351 283.933 71.8018 308.333 71.8018C332.733 71.8018 333.667 71.9351 333.667 74.4684ZM422.733 74.4684C422.467 76.0684 421.933 77.2684 421.4 77.1351C420.733 77.1351 409.533 77.1351 396.333 77.1351C373.267 77.1351 372.333 77.0018 372.333 74.4684C372.333 71.9351 373.267 71.8018 397.8 71.8018C422.6 71.8018 423.133 71.8018 422.733 74.4684ZM481.533 99.9351C500.2 135.135 500.867 136.202 502.467 136.735C503.267 137.002 507.133 131.002 511 123.535C514.867 115.935 519.667 106.735 521.667 103.135C523.667 99.4018 528.067 91.2685 531.533 84.8685C535 78.4685 538.333 72.8684 538.867 72.4684C539.4 72.2018 541.267 84.8685 542.867 100.868C544.6 116.735 546.467 133.402 547.133 137.802C547.8 142.202 548.333 147.802 548.333 150.068C548.333 153.802 547.8 154.468 545.133 154.468C541 154.468 540.6 153.268 539 136.068C536.867 113.002 535.133 99.5351 534.333 98.7351C533.133 97.5351 531.8 99.6685 522.333 117.802C506.867 147.402 502.733 154.735 501.667 153.535C501.133 153.002 497.267 145.802 493 137.802C479.8 112.468 471.933 98.4685 471 98.4685C469.933 98.4685 468.2 111.402 465.533 137.402C464.2 150.602 463.533 153.268 461.4 153.802C455.8 155.668 455.667 154.335 459 127.802C459.667 122.335 461.267 108.202 462.333 96.4685C464.6 74.7351 465.267 70.8684 466.333 72.0684C466.733 72.4684 473.533 85.0018 481.533 99.9351ZM704.6 88.0685C713 97.1351 725.8 110.868 733 118.868C740.334 126.735 746.867 133.002 747.667 132.735C748.467 132.468 749.134 121.535 749.4 102.068L749.667 71.8018H753H756.334V113.402V155.135L750.6 149.135C739.4 137.002 714.2 109.668 706.333 101.002C701.933 96.0685 697.533 92.0685 696.733 91.9351C695.4 91.8018 695 99.2685 694.733 122.735L694.333 153.802H691H687.667L687.267 112.735C687.133 89.1351 687.533 71.8018 688.2 71.8018C688.867 71.8018 696.2 79.1351 704.6 88.0685ZM332.067 112.068C332.467 114.335 330.867 114.468 312.733 114.468C299 114.468 292.333 115.002 291.267 116.068C290.2 117.135 289.667 122.602 289.667 131.935C289.667 143.668 290.067 146.335 291.8 147.002C293 147.402 302.867 147.802 313.8 147.802H333.667V151.135V154.468L308.733 154.202L283.667 153.802L283.267 131.935C283.133 119.535 283.4 109.668 284.2 109.268C284.867 108.868 295.8 108.735 308.467 109.135C329.133 109.668 331.667 110.068 332.067 112.068ZM420.733 110.335C423.933 113.535 419.667 114.468 401.667 114.468C391.533 114.468 382.333 114.868 381.133 115.268C379.4 115.935 379 118.602 379 131.135C379 144.068 379.267 146.335 381.267 147.002C382.467 147.535 392.2 147.802 402.867 147.668L422.333 147.535V150.602V153.802H397.667H373L372.6 131.935C372.467 119.402 372.733 109.668 373.533 109.268C375.533 107.935 419.267 108.868 420.733 110.335Z" fill="black"/>
</svg>
