<?xml version="1.0" encoding="utf-8"?>
<!-- Svg Vector Icons : http://www.onlinewebfonts.com/icon -->
<!DOCTYPE svg PUBLIC "-//W3C//DTD SVG 1.1//EN" "http://www.w3.org/Graphics/SVG/1.1/DTD/svg11.dtd">
<svg version="1.1" xmlns="http://www.w3.org/2000/svg" xmlns:xlink="http://www.w3.org/1999/xlink" x="0px" y="0px" viewBox="0 0 256 256" enable-background="new 0 0 256 256" xml:space="preserve">
<metadata> Svg Vector Icons : http://www.onlinewebfonts.com/icon </metadata>
<g><g><g><g><path fill="#000000" d="M135.3,150c-0.2-8,0-15.1,1-19.5c3.9-16,33.2-40.8,41.8-54.9c-11.4,5.8-43.9,41.3-47.1,33.4c-6.5-16-24-56-45-70.9c21,23.6,35.6,73,38.3,102.7c0.3,3.1,0.5,6.1,0.6,9.2c-25.8,0.5-45.8,3.4-45.8,7l17.7,81.9c0,3.9,15.8,7.1,35.3,7.1c19.5,0,35.3-3.2,35.3-7.1L185,157C185,153.3,163,150.2,135.3,150z M86.6,157c6.4-1.5,19.4-3.1,38.5-3.4c0.1,2.4,0.1,4.6,0.1,6.9C106,160.1,93,158.5,86.6,157z M135.8,160.5c-0.2-2.4-0.3-4.7-0.4-7c21.1,0.2,35.3,1.9,42.1,3.5C170.7,158.6,156.7,160.3,135.8,160.5z"/><path fill="#000000" d="M169.6,62.5c4.8-18.6-0.9-36.1-0.9-36.1S155.3,39,150.5,57.6c-4.8,18.6,0.9,36.1,0.9,36.1S164.8,81.1,169.6,62.5z"/><path fill="#000000" d="M120.3,35.2c3.3-13-0.6-25.2-0.6-25.2s-9.3,8.8-12.7,21.8c-3.3,13,0.6,25.2,0.6,25.2S117,48.2,120.3,35.2z"/><path fill="#000000" d="M148.6,114.8c0,0,10.8,6.9,24.2,7c13.4,0,24.3-6.8,24.3-6.8s-10.8-6.9-24.2-6.9C159.5,108,148.6,114.8,148.6,114.8z"/><path fill="#000000" d="M105.1,74.3c0,0-8.2-9.8-21-13.9C71.4,56.3,59,59.5,59,59.5s8.2,9.8,21,14C92.7,77.5,105.1,74.3,105.1,74.3z"/><path fill="#000000" d="M83,99.2c0,0,5.8,7,14.9,9.9s17.8,0.7,17.8,0.7s-5.8-7-14.9-9.9C91.9,97,83,99.2,83,99.2z"/></g></g><g></g><g></g><g></g><g></g><g></g><g></g><g></g><g></g><g></g><g></g><g></g><g></g><g></g><g></g><g></g></g></g>
</svg>