<?xml version="1.0" standalone="no"?>
<!DOCTYPE svg PUBLIC "-//W3C//DTD SVG 20010904//EN"
 "http://www.w3.org/TR/2001/REC-SVG-20010904/DTD/svg10.dtd">
<svg version="1.0" xmlns="http://www.w3.org/2000/svg"
 width="512.000000pt" height="512.000000pt" viewBox="0 0 512.000000 512.000000"
 preserveAspectRatio="xMidYMid meet">

<g transform="translate(0.000000,512.000000) scale(0.100000,-0.100000)"
fill="#000000" stroke="none">
<path d="M2480 4840 l0 -120 80 0 80 0 0 120 0 120 -80 0 -80 0 0 -120z"/>
<path d="M1837 4642 c-26 -26 -47 -52 -47 -58 0 -5 34 -43 75 -84 l75 -75 57
58 58 57 -75 75 c-41 41 -79 75 -85 75 -6 0 -32 -22 -58 -48z"/>
<path d="M3142 4617 c-39 -40 -72 -77 -72 -83 0 -13 92 -104 106 -104 5 0 43
34 84 75 l74 75 -54 55 c-30 30 -57 55 -60 55 -3 0 -38 -33 -78 -73z"/>
<path d="M3445 4457 c-15 -34 -29 -67 -32 -74 -2 -6 31 -30 78 -54 183 -95
362 -231 515 -391 123 -130 181 -208 323 -438 8 -13 19 -10 75 19 36 18 66 38
66 43 0 6 -24 51 -54 101 -198 336 -529 647 -873 820 l-71 36 -27 -62z"/>
<path d="M1530 4459 c-182 -99 -389 -257 -527 -403 -73 -76 -203 -235 -203
-247 0 -6 114 -89 123 -89 2 0 36 39 74 88 163 203 417 413 632 521 l60 31
-32 70 c-17 38 -36 70 -41 70 -6 0 -45 -19 -86 -41z"/>
<path d="M2441 4384 c-253 -68 -410 -331 -346 -579 67 -256 329 -415 580 -350
256 67 415 329 350 578 -67 259 -333 419 -584 351z"/>
<path d="M1520 3920 l0 -80 120 0 120 0 0 80 0 80 -120 0 -120 0 0 -80z"/>
<path d="M3360 3920 l0 -80 120 0 120 0 0 80 0 80 -120 0 -120 0 0 -80z"/>
<path d="M1120 3498 l0 -103 -88 88 c-48 48 -92 87 -98 87 -13 0 -104 -92
-104 -105 0 -6 65 -75 145 -155 l145 -145 0 -231 0 -232 -199 120 -199 119
-41 167 c-23 92 -46 183 -52 203 l-9 37 -71 -18 c-39 -10 -73 -21 -76 -24 -3
-3 7 -55 22 -116 15 -61 25 -113 22 -117 -3 -3 -40 16 -82 41 -42 25 -79 46
-83 46 -8 0 -86 -130 -80 -135 1 -2 41 -26 87 -53 l84 -51 -39 -10 c-22 -5
-78 -20 -125 -31 l-86 -22 19 -77 20 -78 203 51 203 50 201 -120 c110 -65 200
-121 200 -124 0 -3 -90 -59 -200 -124 l-201 -120 -203 50 -203 51 -20 -78 -19
-77 86 -22 c47 -11 103 -26 125 -31 l39 -10 -84 -51 c-46 -27 -86 -51 -87 -53
-6 -5 72 -135 80 -135 4 0 41 21 83 46 42 25 79 44 82 41 3 -4 -7 -56 -22
-117 -15 -61 -25 -113 -22 -116 3 -3 37 -14 76 -24 l71 -18 9 37 c6 20 29 111
52 203 l41 167 199 119 199 120 0 -232 0 -231 -147 -147 -148 -148 58 -57 57
-58 90 90 90 90 0 -103 0 -102 80 0 80 0 0 102 0 103 90 -90 90 -90 57 58 58
57 -148 148 -147 147 0 232 0 232 199 -119 198 -120 42 -167 c23 -93 46 -184
52 -204 l9 -37 71 18 c39 10 73 21 76 24 3 3 -6 53 -21 110 -14 58 -26 112
-26 120 0 11 26 0 85 -36 47 -28 87 -49 89 -47 14 19 77 131 75 134 -2 1 -42
26 -88 53 l-84 51 39 10 c22 5 78 20 125 31 l86 22 -19 77 -20 78 -203 -51
-203 -50 -201 120 c-110 65 -200 121 -200 124 0 3 90 59 200 124 l201 120 203
-50 203 -51 20 78 19 77 -86 22 c-47 11 -103 26 -125 31 l-39 10 84 51 c46 27
86 52 88 53 2 3 -61 115 -75 134 -2 2 -42 -19 -89 -47 -59 -36 -85 -47 -85
-36 0 8 12 62 26 120 15 57 24 107 21 110 -3 3 -37 14 -76 24 l-71 18 -9 -37
c-6 -20 -29 -111 -52 -204 l-42 -167 -198 -120 -199 -119 0 232 0 232 145 145
c80 80 145 149 145 155 0 13 -92 105 -105 105 -5 0 -49 -39 -97 -87 l-88 -88
0 103 0 102 -80 0 -80 0 0 -102z"/>
<path d="M3117 3362 c-26 -26 -47 -52 -47 -58 0 -5 34 -43 75 -84 l75 -75 57
58 58 57 -75 75 c-41 41 -79 75 -85 75 -6 0 -32 -22 -58 -48z"/>
<path d="M3906 3350 c-63 -16 -153 -70 -197 -117 -84 -91 -127 -240 -100 -353
5 -24 8 -46 6 -48 -2 -2 -23 7 -47 19 -35 19 -59 23 -128 23 -78 1 -90 -2
-148 -33 -70 -38 -100 -69 -140 -145 -23 -44 -27 -63 -27 -136 0 -73 4 -92 28
-138 35 -67 89 -121 152 -152 l50 -25 645 0 645 0 51 27 c76 40 107 70 145
140 31 58 34 70 34 148 0 78 -3 90 -34 148 -37 69 -80 109 -151 144 -63 31
-195 31 -260 0 -24 -11 -45 -20 -47 -19 -1 2 3 23 8 47 18 77 4 175 -35 256
-66 132 -188 213 -334 220 -42 2 -94 -1 -116 -6z"/>
<path d="M2480 3000 l0 -120 80 0 80 0 0 120 0 120 -80 0 -80 0 0 -120z"/>
<path d="M3342 1937 c-61 -62 -112 -117 -112 -123 0 -13 92 -104 106 -104 5 0
61 52 124 115 l114 115 -54 55 c-30 30 -57 55 -60 55 -3 0 -56 -51 -118 -113z"/>
<path d="M3822 1937 c-61 -62 -112 -117 -112 -123 0 -13 92 -104 106 -104 5 0
61 52 124 115 l114 115 -54 55 c-30 30 -57 55 -60 55 -3 0 -56 -51 -118 -113z"/>
<path d="M4302 1937 c-61 -62 -112 -117 -112 -123 0 -13 92 -104 106 -104 5 0
61 52 124 115 l114 115 -54 55 c-30 30 -57 55 -60 55 -3 0 -56 -51 -118 -113z"/>
<path d="M2182 1663 c-72 -72 -182 -229 -182 -260 0 -10 118 -73 136 -73 1 0
19 30 40 68 21 37 71 102 113 144 l76 78 -43 57 c-24 32 -47 59 -52 61 -5 2
-45 -32 -88 -75z"/>
<path d="M2770 1585 c0 -2 9 -41 21 -87 15 -60 22 -122 24 -222 l3 -139 71
-71 71 -71 0 103 0 102 80 0 80 0 0 -62 0 -62 55 54 c30 30 55 61 55 69 0 8
-17 44 -37 80 -50 89 -160 197 -248 243 -63 32 -175 73 -175 63z"/>
<path d="M4240 1477 c-139 -223 -389 -470 -620 -613 l-59 -36 27 -47 c15 -26
34 -57 42 -69 l15 -22 79 51 c270 173 526 435 685 701 l21 36 -64 36 c-35 20
-68 36 -73 36 -4 -1 -28 -33 -53 -73z"/>
<path d="M870 1350 c-30 -22 -56 -44 -58 -49 -5 -15 118 -163 222 -267 103
-102 212 -194 316 -264 l58 -39 42 66 c41 66 42 68 22 83 -11 8 -60 44 -108
80 -109 79 -283 246 -366 352 -34 43 -64 78 -67 78 -3 0 -31 -19 -61 -40z"/>
<path d="M1913 1335 c-18 -7 -52 -34 -77 -58 -59 -59 -76 -117 -76 -256 l0
-106 79 79 c78 77 80 80 86 140 4 34 17 96 30 139 25 86 22 90 -42 62z"/>
<path d="M2122 1278 c-11 -29 -23 -71 -26 -93 -7 -40 -6 -41 83 -129 l89 -89
11 39 c30 108 -1 220 -79 287 -24 20 -47 37 -51 37 -4 0 -16 -24 -27 -52z"/>
<path d="M3199 923 l-77 -78 -11 -83 c-7 -45 -21 -107 -31 -138 l-20 -56 30 5
c76 16 158 101 180 188 6 24 10 88 8 142 l-3 98 -76 -78z"/>
<path d="M2761 914 c-30 -108 1 -220 79 -287 24 -20 47 -37 51 -37 10 0 45 95
53 145 7 40 6 41 -83 129 l-89 89 -11 -39z"/>
<path d="M2080 822 l0 -102 -80 0 -80 0 0 62 0 62 -55 -54 c-30 -30 -55 -61
-55 -69 0 -8 16 -43 37 -79 43 -78 147 -184 225 -230 51 -30 188 -85 195 -78
2 2 -6 41 -18 87 -15 61 -22 122 -24 223 l-3 139 -71 71 -71 71 0 -103z"/>
<path d="M2864 523 c-22 -38 -73 -103 -114 -145 l-75 -78 43 -57 c24 -32 47
-59 52 -61 19 -7 167 155 218 238 29 46 52 90 52 98 0 9 -116 72 -135 72 -1 0
-20 -30 -41 -67z"/>
</g>
</svg>
