<svg width="524" height="530" viewBox="0 0 524 530" fill="none" xmlns="http://www.w3.org/2000/svg">
<path d="M21.3333 188.2C6.93333 192.6 0 202.333 0 218.067C0 224.6 0.8 228.067 3.73333 233.8C9.6 245.4 16.1333 248.867 49.6 258.2C54 259.533 59.3333 262.2 62 264.467L66.6667 268.6V300.2C66.6667 329.267 66.9333 332.067 69.0667 334.067C72 336.733 76.1333 337 78.4 334.733C79.6 333.533 80 324.6 80 302.733C80 268.467 80.4 266.867 88.9333 262.067C91.7333 260.6 100 257.667 107.333 255.667C132.4 248.733 142.267 241.933 146 229.267C148.933 219.267 148.533 211.267 144.667 203.4C132.667 179.4 95.3333 183.133 75.4667 210.333C73.4667 213 73.4667 213 71.2 209.667C67.4667 204.333 58.4 196.333 53.0667 193.533C42.6667 188.2 28.9333 185.933 21.3333 188.2ZM43.4667 204.333C57.6 210.333 65.4667 222.6 66.4 240.067L67.0667 251.267L61.8667 248.6C58.9333 247.133 50.1333 244.067 42.2667 241.8C19.4667 235.267 14.6667 231.667 13.6 220.333C12 203.267 24.8 196.333 43.4667 204.333ZM123.067 201.8C129.733 203.533 133.333 209.4 133.333 218.067C133.333 230.333 126.267 236.333 105.333 241.667C99.0667 243.267 91.3333 245.667 88.1333 247.133C84.9333 248.467 81.7333 249.667 80.9333 249.667C80.1333 249.667 79.8667 246.067 80.4 239.533C81.8667 219.133 93.2 205.667 112 201.667C114.533 201.133 116.933 200.6 117.333 200.467C117.733 200.467 120.267 201 123.067 201.8Z" fill="black"/>
<path d="M394.534 189C378.001 194.2 370.534 213.934 378.134 232.334C382.667 242.867 391.201 248.334 414.001 255C422.001 257.4 430.801 260.334 433.601 261.8C442.534 266.334 442.667 266.734 442.667 301.267C442.667 327.534 442.934 332.467 444.801 334.2C447.467 336.867 451.201 336.867 453.867 334.2C455.734 332.467 456.001 327.534 456.001 301.534C456.001 283.667 456.534 269.8 457.334 268.334C459.867 263.667 466.134 260.467 482.534 255.667C507.867 248.2 515.867 243.267 520.801 231.667C524.001 223.934 523.867 210.334 520.401 203.667C511.334 186.334 490.801 182.467 468.934 194.067C461.734 197.8 454.134 204.734 450.934 210.467C449.734 212.6 448.934 212.067 442.801 205.4C434.667 196.467 427.067 191.8 416.534 189C407.201 186.6 402.534 186.6 394.534 189ZM417.601 203.8C425.467 206.334 435.201 215.534 438.934 223.8C442.001 231 443.867 249.667 441.467 249.667C440.534 249.667 438.134 248.734 436.134 247.667C434.001 246.6 426.401 244.2 419.334 242.334C394.667 235.667 389.334 231.4 389.334 217.534C389.334 202.2 398.534 197.8 417.601 203.8ZM502.801 203.134C506.667 205.134 509.734 213.534 508.934 220.067C507.734 231.534 502.534 235.4 480.667 241.667C472.667 244.067 463.734 247.134 460.801 248.6L455.601 251.267L456.267 240.067C457.201 223.534 464.267 211.8 477.334 205C485.734 200.6 496.667 199.8 502.801 203.134Z" fill="black"/>
<path d="M21.3333 0.999862C6.93333 5.39986 0 15.1332 0 30.8665C0 37.3999 0.8 40.8665 3.73333 46.5999C9.6 58.1999 16.1333 61.6665 49.6 70.9999C54 72.3332 59.3333 74.9999 62 77.2665L66.6667 81.3999V113C66.6667 142.067 66.9333 144.867 69.0667 146.867C72 149.533 76.1333 149.8 78.4 147.533C79.6 146.333 80 137.4 80 115.533C80 81.2665 80.4 79.6665 88.9333 74.8665C91.7333 73.3999 100 70.4665 107.333 68.4665C132.4 61.5332 142.267 54.7332 146 42.0665C148.933 32.0665 148.533 24.0665 144.667 16.1999C132.667 -7.80014 95.3333 -4.0668 75.4667 23.1332C73.4667 25.7999 73.4667 25.7999 71.2 22.4665C67.4667 17.1332 58.4 9.1332 53.0667 6.3332C42.6667 0.999862 28.9333 -1.2668 21.3333 0.999862ZM43.4667 17.1332C57.6 23.1332 65.4667 35.3999 66.4 52.8665L67.0667 64.0665L61.8667 61.3999C58.9333 59.9332 50.1333 56.8665 42.2667 54.5999C19.4667 48.0665 14.6667 44.4665 13.6 33.1332C12 16.0665 24.8 9.1332 43.4667 17.1332ZM123.067 14.5999C129.733 16.3332 133.333 22.1999 133.333 30.8665C133.333 43.1332 126.267 49.1332 105.333 54.4665C99.0667 56.0665 91.3333 58.4665 88.1333 59.9332C84.9333 61.2665 81.7333 62.4665 80.9333 62.4665C80.1333 62.4665 79.8667 58.8665 80.4 52.3332C81.8667 31.9332 93.2 18.4665 112 14.4665C114.533 13.9332 116.933 13.3999 117.333 13.2665C117.733 13.2665 120.267 13.7999 123.067 14.5999Z" fill="black"/>
<path d="M394.534 1.79999C378.001 6.99999 370.534 26.7333 378.134 45.1333C382.667 55.6667 391.201 61.1333 414.001 67.8C422.001 70.2 430.801 73.1333 433.601 74.6C442.534 79.1333 442.667 79.5333 442.667 114.067C442.667 140.333 442.934 145.267 444.801 147C447.467 149.667 451.201 149.667 453.867 147C455.734 145.267 456.001 140.333 456.001 114.333C456.001 96.4667 456.534 82.6 457.334 81.1333C459.867 76.4667 466.134 73.2667 482.534 68.4667C507.867 61 515.867 56.0667 520.801 44.4667C524.001 36.7333 523.867 23.1333 520.401 16.4667C511.334 -0.866674 490.801 -4.73334 468.934 6.86666C461.734 10.6 454.134 17.5333 450.934 23.2667C449.734 25.4 448.934 24.8667 442.801 18.2C434.667 9.26666 427.067 4.59999 416.534 1.79999C407.201 -0.600008 402.534 -0.600008 394.534 1.79999ZM417.601 16.6C425.467 19.1333 435.201 28.3333 438.934 36.6C442.001 43.8 443.867 62.4667 441.467 62.4667C440.534 62.4667 438.134 61.5333 436.134 60.4667C434.001 59.4 426.401 57 419.334 55.1333C394.667 48.4667 389.334 44.2 389.334 30.3333C389.334 15 398.534 10.6 417.601 16.6ZM502.801 15.9333C506.667 17.9333 509.734 26.3333 508.934 32.8667C507.734 44.3333 502.534 48.2 480.667 54.4667C472.667 56.8667 463.734 59.9333 460.801 61.4L455.601 64.0667L456.267 52.8667C457.201 36.3333 464.267 24.6 477.334 17.8C485.734 13.4 496.667 12.6 502.801 15.9333Z" fill="black"/>
<path d="M21.3333 0.999862C6.93333 5.39986 0 15.1332 0 30.8665C0 37.3999 0.8 40.8665 3.73333 46.5999C9.6 58.1999 16.1333 61.6665 49.6 70.9999C54 72.3332 59.3333 74.9999 62 77.2665L66.6667 81.3999V113C66.6667 142.067 66.9333 144.867 69.0667 146.867C72 149.533 76.1333 149.8 78.4 147.533C79.6 146.333 80 137.4 80 115.533C80 81.2665 80.4 79.6665 88.9333 74.8665C91.7333 73.3999 100 70.4665 107.333 68.4665C132.4 61.5332 142.267 54.7332 146 42.0665C148.933 32.0665 148.533 24.0665 144.667 16.1999C132.667 -7.80014 95.3333 -4.0668 75.4667 23.1332C73.4667 25.7999 73.4667 25.7999 71.2 22.4665C67.4667 17.1332 58.4 9.1332 53.0667 6.3332C42.6667 0.999862 28.9333 -1.2668 21.3333 0.999862ZM43.4667 17.1332C57.6 23.1332 65.4667 35.3999 66.4 52.8665L67.0667 64.0665L61.8667 61.3999C58.9333 59.9332 50.1333 56.8665 42.2667 54.5999C19.4667 48.0665 14.6667 44.4665 13.6 33.1332C12 16.0665 24.8 9.1332 43.4667 17.1332ZM123.067 14.5999C129.733 16.3332 133.333 22.1999 133.333 30.8665C133.333 43.1332 126.267 49.1332 105.333 54.4665C99.0667 56.0665 91.3333 58.4665 88.1333 59.9332C84.9333 61.2665 81.7333 62.4665 80.9333 62.4665C80.1333 62.4665 79.8667 58.8665 80.4 52.3332C81.8667 31.9332 93.2 18.4665 112 14.4665C114.533 13.9332 116.933 13.3999 117.333 13.2665C117.733 13.2665 120.267 13.7999 123.067 14.5999Z" fill="black"/>
<path d="M394.534 1.79999C378.001 6.99999 370.534 26.7333 378.134 45.1333C382.667 55.6667 391.201 61.1333 414.001 67.8C422.001 70.2 430.801 73.1333 433.601 74.6C442.534 79.1333 442.667 79.5333 442.667 114.067C442.667 140.333 442.934 145.267 444.801 147C447.467 149.667 451.201 149.667 453.867 147C455.734 145.267 456.001 140.333 456.001 114.333C456.001 96.4667 456.534 82.6 457.334 81.1333C459.867 76.4667 466.134 73.2667 482.534 68.4667C507.867 61 515.867 56.0667 520.801 44.4667C524.001 36.7333 523.867 23.1333 520.401 16.4667C511.334 -0.866674 490.801 -4.73334 468.934 6.86666C461.734 10.6 454.134 17.5333 450.934 23.2667C449.734 25.4 448.934 24.8667 442.801 18.2C434.667 9.26666 427.067 4.59999 416.534 1.79999C407.201 -0.600008 402.534 -0.600008 394.534 1.79999ZM417.601 16.6C425.467 19.1333 435.201 28.3333 438.934 36.6C442.001 43.8 443.867 62.4667 441.467 62.4667C440.534 62.4667 438.134 61.5333 436.134 60.4667C434.001 59.4 426.401 57 419.334 55.1333C394.667 48.4667 389.334 44.2 389.334 30.3333C389.334 15 398.534 10.6 417.601 16.6ZM502.801 15.9333C506.667 17.9333 509.734 26.3333 508.934 32.8667C507.734 44.3333 502.534 48.2 480.667 54.4667C472.667 56.8667 463.734 59.9333 460.801 61.4L455.601 64.0667L456.267 52.8667C457.201 36.3333 464.267 24.6 477.334 17.8C485.734 13.4 496.667 12.6 502.801 15.9333Z" fill="black"/>
<path d="M21.3333 381C6.93333 385.4 0 395.133 0 410.867C0 417.4 0.8 420.867 3.73333 426.6C9.6 438.2 16.1333 441.667 49.6 451C54 452.333 59.3333 455 62 457.267L66.6667 461.4V493C66.6667 522.067 66.9333 524.867 69.0667 526.867C72 529.533 76.1333 529.8 78.4 527.533C79.6 526.333 80 517.4 80 495.533C80 461.267 80.4 459.667 88.9333 454.867C91.7333 453.4 100 450.467 107.333 448.467C132.4 441.533 142.267 434.733 146 422.067C148.933 412.067 148.533 404.067 144.667 396.2C132.667 372.2 95.3333 375.933 75.4667 403.133C73.4667 405.8 73.4667 405.8 71.2 402.467C67.4667 397.133 58.4 389.133 53.0667 386.333C42.6667 381 28.9333 378.733 21.3333 381ZM43.4667 397.133C57.6 403.133 65.4667 415.4 66.4 432.867L67.0667 444.067L61.8667 441.4C58.9333 439.933 50.1333 436.867 42.2667 434.6C19.4667 428.067 14.6667 424.467 13.6 413.133C12 396.067 24.8 389.133 43.4667 397.133ZM123.067 394.6C129.733 396.333 133.333 402.2 133.333 410.867C133.333 423.133 126.267 429.133 105.333 434.467C99.0667 436.067 91.3333 438.467 88.1333 439.933C84.9333 441.267 81.7333 442.467 80.9333 442.467C80.1333 442.467 79.8667 438.867 80.4 432.333C81.8667 411.933 93.2 398.467 112 394.467C114.533 393.933 116.933 393.4 117.333 393.267C117.733 393.267 120.267 393.8 123.067 394.6Z" fill="black"/>
<path d="M394.534 381.8C378.001 387 370.534 406.733 378.134 425.133C382.667 435.667 391.201 441.133 414.001 447.8C422.001 450.2 430.801 453.133 433.601 454.6C442.534 459.133 442.667 459.533 442.667 494.067C442.667 520.333 442.934 525.267 444.801 527C447.467 529.667 451.201 529.667 453.867 527C455.734 525.267 456.001 520.333 456.001 494.333C456.001 476.467 456.534 462.6 457.334 461.133C459.867 456.467 466.134 453.267 482.534 448.467C507.867 441 515.867 436.067 520.801 424.467C524.001 416.733 523.867 403.133 520.401 396.467C511.334 379.133 490.801 375.267 468.934 386.867C461.734 390.6 454.134 397.533 450.934 403.267C449.734 405.4 448.934 404.867 442.801 398.2C434.667 389.267 427.067 384.6 416.534 381.8C407.201 379.4 402.534 379.4 394.534 381.8ZM417.601 396.6C425.467 399.133 435.201 408.333 438.934 416.6C442.001 423.8 443.867 442.467 441.467 442.467C440.534 442.467 438.134 441.533 436.134 440.467C434.001 439.4 426.401 437 419.334 435.133C394.667 428.467 389.334 424.2 389.334 410.333C389.334 395 398.534 390.6 417.601 396.6ZM502.801 395.933C506.667 397.933 509.734 406.333 508.934 412.867C507.734 424.333 502.534 428.2 480.667 434.467C472.667 436.867 463.734 439.933 460.801 441.4L455.601 444.067L456.267 432.867C457.201 416.333 464.267 404.6 477.334 397.8C485.734 393.4 496.667 392.6 502.801 395.933Z" fill="black"/>
<path d="M197.324 327.504C186.124 338.704 176.657 349.371 176.124 350.971C175.324 353.771 177.991 356.971 196.257 375.371C207.857 386.971 218.391 396.837 219.724 397.371C222.924 398.304 226.924 395.904 227.857 392.304C228.524 389.904 225.991 386.704 213.857 374.304L198.924 359.237H261.457H323.991L309.724 373.771C301.857 381.637 295.457 389.104 295.457 390.437C295.457 393.237 300.124 397.904 303.057 397.904C306.257 397.904 348.791 355.104 348.791 351.904C348.791 350.437 340.124 340.704 327.857 328.304C306.524 306.837 302.791 304.437 298.391 308.837C294.257 312.971 296.657 316.971 311.057 331.504L325.457 345.904H262.124H198.924L213.857 330.837C222.124 322.437 228.791 314.971 228.791 314.037C228.791 310.037 225.857 307.237 221.857 307.237C218.124 307.237 214.924 309.904 197.324 327.504Z" fill="black"/>
</svg>
