<svg width="524" height="155" viewBox="0 0 524 155" fill="none" xmlns="http://www.w3.org/2000/svg">
<path d="M21.3333 0.999862C6.93333 5.39986 0 15.1332 0 30.8665C0 37.3999 0.8 40.8665 3.73333 46.5999C9.6 58.1999 16.1333 61.6665 49.6 70.9999C54 72.3332 59.3333 74.9999 62 77.2665L66.6667 81.3999V113C66.6667 142.067 66.9333 144.867 69.0667 146.867C72 149.533 76.1333 149.8 78.4 147.533C79.6 146.333 80 137.4 80 115.533C80 81.2665 80.4 79.6665 88.9333 74.8665C91.7333 73.3999 100 70.4665 107.333 68.4665C132.4 61.5332 142.267 54.7332 146 42.0665C148.933 32.0665 148.533 24.0665 144.667 16.1999C132.667 -7.80014 95.3333 -4.0668 75.4667 23.1332C73.4667 25.7999 73.4667 25.7999 71.2 22.4665C67.4667 17.1332 58.4 9.1332 53.0667 6.3332C42.6667 0.999862 28.9333 -1.2668 21.3333 0.999862ZM43.4667 17.1332C57.6 23.1332 65.4667 35.3999 66.4 52.8665L67.0667 64.0665L61.8667 61.3999C58.9333 59.9332 50.1333 56.8665 42.2667 54.5999C19.4667 48.0665 14.6667 44.4665 13.6 33.1332C12 16.0665 24.8 9.1332 43.4667 17.1332ZM123.067 14.5999C129.733 16.3332 133.333 22.1999 133.333 30.8665C133.333 43.1332 126.267 49.1332 105.333 54.4665C99.0667 56.0665 91.3333 58.4665 88.1333 59.9332C84.9333 61.2665 81.7333 62.4665 80.9333 62.4665C80.1333 62.4665 79.8667 58.8665 80.4 52.3332C81.8667 31.9332 93.2 18.4665 112 14.4665C114.533 13.9332 116.933 13.3999 117.333 13.2665C117.733 13.2665 120.267 13.7999 123.067 14.5999Z" fill="black"/>
<path d="M394.534 1.79999C378.001 6.99999 370.534 26.7333 378.134 45.1333C382.667 55.6667 391.201 61.1333 414.001 67.8C422.001 70.2 430.801 73.1333 433.601 74.6C442.534 79.1333 442.667 79.5333 442.667 114.067C442.667 140.333 442.934 145.267 444.801 147C447.467 149.667 451.201 149.667 453.867 147C455.734 145.267 456.001 140.333 456.001 114.333C456.001 96.4667 456.534 82.6 457.334 81.1333C459.867 76.4667 466.134 73.2667 482.534 68.4667C507.867 61 515.867 56.0667 520.801 44.4667C524.001 36.7333 523.867 23.1333 520.401 16.4667C511.334 -0.866674 490.801 -4.73334 468.934 6.86666C461.734 10.6 454.134 17.5333 450.934 23.2667C449.734 25.4 448.934 24.8667 442.801 18.2C434.667 9.26666 427.067 4.59999 416.534 1.79999C407.201 -0.600008 402.534 -0.600008 394.534 1.79999ZM417.601 16.6C425.467 19.1333 435.201 28.3333 438.934 36.6C442.001 43.8 443.867 62.4667 441.467 62.4667C440.534 62.4667 438.134 61.5333 436.134 60.4667C434.001 59.4 426.401 57 419.334 55.1333C394.667 48.4667 389.334 44.2 389.334 30.3333C389.334 15 398.534 10.6 417.601 16.6ZM502.801 15.9333C506.667 17.9333 509.734 26.3333 508.934 32.8667C507.734 44.3333 502.534 48.2 480.667 54.4667C472.667 56.8667 463.734 59.9333 460.801 61.4L455.601 64.0667L456.267 52.8667C457.201 36.3333 464.267 24.6 477.334 17.8C485.734 13.4 496.667 12.6 502.801 15.9333Z" fill="black"/>
<path d="M21.3333 0.999862C6.93333 5.39986 0 15.1332 0 30.8665C0 37.3999 0.8 40.8665 3.73333 46.5999C9.6 58.1999 16.1333 61.6665 49.6 70.9999C54 72.3332 59.3333 74.9999 62 77.2665L66.6667 81.3999V113C66.6667 142.067 66.9333 144.867 69.0667 146.867C72 149.533 76.1333 149.8 78.4 147.533C79.6 146.333 80 137.4 80 115.533C80 81.2665 80.4 79.6665 88.9333 74.8665C91.7333 73.3999 100 70.4665 107.333 68.4665C132.4 61.5332 142.267 54.7332 146 42.0665C148.933 32.0665 148.533 24.0665 144.667 16.1999C132.667 -7.80014 95.3333 -4.0668 75.4667 23.1332C73.4667 25.7999 73.4667 25.7999 71.2 22.4665C67.4667 17.1332 58.4 9.1332 53.0667 6.3332C42.6667 0.999862 28.9333 -1.2668 21.3333 0.999862ZM43.4667 17.1332C57.6 23.1332 65.4667 35.3999 66.4 52.8665L67.0667 64.0665L61.8667 61.3999C58.9333 59.9332 50.1333 56.8665 42.2667 54.5999C19.4667 48.0665 14.6667 44.4665 13.6 33.1332C12 16.0665 24.8 9.1332 43.4667 17.1332ZM123.067 14.5999C129.733 16.3332 133.333 22.1999 133.333 30.8665C133.333 43.1332 126.267 49.1332 105.333 54.4665C99.0667 56.0665 91.3333 58.4665 88.1333 59.9332C84.9333 61.2665 81.7333 62.4665 80.9333 62.4665C80.1333 62.4665 79.8667 58.8665 80.4 52.3332C81.8667 31.9332 93.2 18.4665 112 14.4665C114.533 13.9332 116.933 13.3999 117.333 13.2665C117.733 13.2665 120.267 13.7999 123.067 14.5999Z" fill="black"/>
<path d="M394.534 1.79999C378.001 6.99999 370.534 26.7333 378.134 45.1333C382.667 55.6667 391.201 61.1333 414.001 67.8C422.001 70.2 430.801 73.1333 433.601 74.6C442.534 79.1333 442.667 79.5333 442.667 114.067C442.667 140.333 442.934 145.267 444.801 147C447.467 149.667 451.201 149.667 453.867 147C455.734 145.267 456.001 140.333 456.001 114.333C456.001 96.4667 456.534 82.6 457.334 81.1333C459.867 76.4667 466.134 73.2667 482.534 68.4667C507.867 61 515.867 56.0667 520.801 44.4667C524.001 36.7333 523.867 23.1333 520.401 16.4667C511.334 -0.866674 490.801 -4.73334 468.934 6.86666C461.734 10.6 454.134 17.5333 450.934 23.2667C449.734 25.4 448.934 24.8667 442.801 18.2C434.667 9.26666 427.067 4.59999 416.534 1.79999C407.201 -0.600008 402.534 -0.600008 394.534 1.79999ZM417.601 16.6C425.467 19.1333 435.201 28.3333 438.934 36.6C442.001 43.8 443.867 62.4667 441.467 62.4667C440.534 62.4667 438.134 61.5333 436.134 60.4667C434.001 59.4 426.401 57 419.334 55.1333C394.667 48.4667 389.334 44.2 389.334 30.3333C389.334 15 398.534 10.6 417.601 16.6ZM502.801 15.9333C506.667 17.9333 509.734 26.3333 508.934 32.8667C507.734 44.3333 502.534 48.2 480.667 54.4667C472.667 56.8667 463.734 59.9333 460.801 61.4L455.601 64.0667L456.267 52.8667C457.201 36.3333 464.267 24.6 477.334 17.8C485.734 13.4 496.667 12.6 502.801 15.9333Z" fill="black"/>
<path d="M196.533 84.0668C185.333 95.2668 175.866 105.933 175.333 107.533C174.533 110.333 177.2 113.533 195.466 131.933C207.066 143.533 217.6 153.4 218.933 153.933C222.133 154.867 226.133 152.467 227.066 148.867C227.733 146.467 225.2 143.267 213.066 130.867L198.133 115.8H260.666H323.2L308.933 130.333C301.066 138.2 294.666 145.667 294.666 147C294.666 149.8 299.333 154.467 302.266 154.467C305.466 154.467 348 111.667 348 108.467C348 107 339.333 97.2668 327.066 84.8668C305.733 63.4001 302 61.0001 297.6 65.4001C293.466 69.5335 295.866 73.5335 310.266 88.0668L324.666 102.467H261.333H198.133L213.066 87.4001C221.333 79.0001 228 71.5335 228 70.6001C228 66.6001 225.066 63.8001 221.066 63.8001C217.333 63.8001 214.133 66.4668 196.533 84.0668Z" fill="black"/>
</svg>
