<svg width="2112" height="105" viewBox="0 0 2112 105" fill="none" xmlns="http://www.w3.org/2000/svg">
<path d="M1561.33 2.05465C1563.87 2.85465 1567.47 4.72132 1569.33 6.05465L1572.67 8.72128L1568.93 12.588L1565.07 16.588L1558.93 13.788C1550.27 9.92132 1537.2 10.0546 1528.8 14.0546C1513.87 21.388 1505.6 41.6546 1509.33 62.3213L1510.8 70.588L1506.13 75.388L1501.47 80.0546L1499.2 74.8546C1497.6 71.388 1496.67 64.7213 1496.27 55.788C1495.73 44.188 1496.13 40.7213 1498.67 32.7213C1503.87 16.5879 1514.93 5.65466 1530.53 1.25466C1537.33 -0.612005 1554 -0.212018 1561.33 2.05465ZM1829.33 2.05465C1831.87 2.85465 1835.47 4.72132 1837.33 6.05465L1840.67 8.72128L1836.93 12.588L1833.07 16.588L1826.93 13.788C1818.27 9.92132 1805.2 10.0546 1796.8 14.0546C1781.87 21.388 1773.6 41.6546 1777.33 62.3213L1778.8 70.588L1774.13 75.388L1769.47 80.0546L1767.2 74.8546C1765.6 71.388 1764.67 64.7213 1764.27 55.788C1763.73 44.188 1764.13 40.7213 1766.67 32.7213C1771.87 16.5879 1782.93 5.65466 1798.53 1.25466C1805.33 -0.612005 1822 -0.212018 1829.33 2.05465ZM2105.07 2.05465C2107.47 3.38798 2108 4.72128 2108 10.188V16.7213L2101.73 13.9213C2089.2 8.45462 2069.2 10.988 2065.07 18.588C2064.27 20.188 2063.6 23.6546 2063.6 26.4546C2063.6 33.5213 2068.27 38.188 2082.93 45.788C2104.13 56.7213 2112 65.388 2112 77.6546C2112 83.5213 2108.27 92.4547 2104.53 95.788C2099.73 99.9213 2089.33 103.655 2080.27 104.455C2071.07 105.121 2054.67 102.321 2051.07 99.388C2049.47 97.9213 2048.53 87.388 2050 85.9213C2050.4 85.5213 2053.6 86.7213 2057.07 88.4546C2065.6 92.7213 2077.33 94.4547 2085.2 92.7213C2094.93 90.588 2098.67 86.4546 2098.67 77.6546C2098.67 70.8546 2092.93 65.1213 2078.53 57.388C2054.93 44.988 2049.87 38.8546 2050.93 24.7213C2051.73 12.9879 2060 4.45461 2074 0.721275C2079.6 -0.745391 2101.47 0.187983 2105.07 2.05465ZM70.4 50.8546C80.8 77.9213 89.3333 100.855 89.3333 101.921C89.3333 103.121 87.6 103.521 83.0667 103.255L76.8 102.855L73.0667 92.8546C71.0667 87.388 68.4 80.8546 67.3333 78.4546L65.3333 74.0546L44.4 74.4546L23.3333 74.8546L18.1333 89.1213L12.9333 103.521H6.53334C2.93334 103.521 0 103.121 0 102.721C0 102.188 8.13333 80.7213 17.8667 54.988C27.7333 29.2547 36.5333 6.45461 37.2 4.45461C38.5333 0.987946 39.0667 0.7213 44.9333 1.1213L51.3333 1.52132L70.4 50.8546ZM250 6.85464V12.188L235.733 12.588L221.333 12.988L221.067 57.9213L220.667 102.855H214.667H208.667L208.267 57.9213L208 12.988L193.6 12.588L179.333 12.188L178.933 6.45461L178.533 0.854637L214.267 1.1213L250 1.52132V6.85464ZM355.467 4.58797C370.4 12.3213 374.667 29.2546 365.467 43.788C362.933 47.6546 359.6 50.7213 355.867 52.588C352.667 54.188 349.2 55.9213 348.267 56.588C346.667 57.6546 354.8 73.388 369.6 97.788L372.267 102.188H366.267H360.267L347.467 79.5213C339.6 65.5213 334.667 55.388 334.667 52.988C334.667 49.5213 335.2 49.1213 340 48.4546C343.067 48.0546 346.933 46.7213 348.8 45.5213C360.133 38.188 360 19.5213 348.667 14.7213C345.867 13.6546 339.467 12.8546 332.667 12.8546H321.333V57.5213V102.188H315.333H309.333V51.388V0.587975L329.733 1.1213C347.067 1.65463 350.8 2.05464 355.467 4.58797ZM451.333 52.1879V102.855H445.333H439.333L438.933 51.788L438.667 0.721275L444.933 1.1213L451.333 1.52132V52.1879ZM566 5.52132C569.467 7.78799 573.467 11.6546 574.8 14.188C577.733 19.6546 578 28.588 575.467 34.588C573.6 39.1213 565.067 47.5213 562.267 47.5213C561.333 47.5213 564 49.2547 568 51.2547C579.333 56.8547 584 65.9213 582.133 78.8546C580.8 86.8546 574.4 95.1213 566 99.2547C560.133 102.321 557.2 102.721 539.733 103.255L520 103.921V52.1879V0.587975L539.733 0.987999C559.067 1.52133 559.733 1.65466 566 5.52132ZM698.667 6.18795V11.5213H672.667H646.667V6.18795V0.854637H672.667H698.667V6.18795ZM816.933 41.5213C822.933 63.5213 828 82.7213 828 84.0546C828 85.5213 828.267 86.3213 828.667 85.9213C829.2 85.388 853.333 2.85463 853.333 1.38796C853.333 1.1213 856 0.854637 859.2 0.854637C863.733 0.854637 865.333 1.38797 865.867 3.1213C869.067 13.9213 888 84.4546 888.133 86.0546C888.133 87.2546 890.4 79.5213 893.2 68.8546C896 58.188 901.2 38.588 904.8 25.1213L911.2 0.854637H917.6C921.067 0.854637 924 1.38795 924 1.92129C924 2.45462 917.733 25.2546 910 52.588C902.267 79.9213 896 102.588 896 102.855C896 103.255 892.8 103.521 888.8 103.521C883.067 103.521 881.333 102.988 880.8 101.121C875.333 82.588 860 26.0546 860 24.188C860 22.8546 859.733 22.0546 859.333 22.4546C858.933 22.7213 854.533 38.0546 849.333 56.3213C844.133 74.588 839.067 92.7213 838 96.4546L835.867 103.521H829.2C823.333 103.521 822.4 103.121 821.333 100.188C820.667 98.3213 814 76.0546 806.667 50.7213C799.2 25.3879 792.8 3.78794 792.4 2.72128C791.733 1.12128 792.933 0.7213 798.667 1.1213L805.733 1.52132L816.933 41.5213ZM996 52.1879V103.521H990H984V52.1879V0.854637H990H996V52.1879ZM1125.33 6.85464V12.8546H1110.67H1096V58.1879V103.521H1090H1084V58.1879V12.8546H1069.33H1054.67V6.85464V0.854637H1090H1125.33V6.85464ZM1196 23.5213V46.1879H1222H1248V23.5213V0.854637H1254H1260V52.3213V103.655L1254.4 103.255L1248.67 102.855L1248.27 79.788L1248 56.8546H1222H1196V80.1879V103.521H1190H1184V52.1879V0.854637H1190H1196V23.5213ZM1419.07 4.72128C1428.8 9.52128 1432.67 16.188 1432.67 28.3213C1432.67 36.8546 1432.27 38.588 1428.67 43.6546C1426.13 47.2546 1422 50.8547 1417.6 52.988C1412 56.0547 1411.2 56.8547 1413.33 57.5213C1414.67 57.9213 1417.6 60.588 1419.73 63.2547C1424.8 69.9213 1444 100.721 1444 102.321C1444 102.988 1441.07 103.521 1437.47 103.521H1430.8L1420.13 85.788C1414.4 76.188 1408.13 66.8546 1406.27 65.1213C1402.53 61.6546 1396.13 59.5213 1389.07 59.5213H1384V81.5213V103.521H1378H1372V52.0546V0.587975L1392.4 1.1213C1410.4 1.5213 1413.33 1.92128 1419.07 4.72128ZM1702.13 5.52132C1716.13 14.3213 1717.47 32.188 1704.8 43.2547C1702.13 45.5213 1699.2 47.5213 1698.27 47.5213C1697.33 47.5213 1700 49.2547 1704 51.2547C1716.13 57.2547 1720.93 68.588 1717.2 81.9213C1715.07 89.5213 1706.93 98.188 1699.33 100.721C1696.4 101.655 1685.47 102.721 1675.07 103.121L1656 103.921V52.1879V0.587975L1675.87 1.1213C1695.07 1.65463 1696 1.78799 1702.13 5.52132ZM1996 6.85464V12.8546H1981.33H1966.67V58.1879V103.521H1960.67H1954.67V58.1879V12.8546H1940H1925.33V6.85464V0.854637H1960.67H1996V6.85464ZM1590.53 38.7213C1593.2 53.6546 1591.6 66.588 1585.73 78.988C1581.33 88.4547 1570.27 98.588 1561.07 101.655C1548.13 106.055 1526.8 104.321 1518.93 98.4546L1515.87 96.0546L1519.87 92.3213L1523.87 88.4546L1529.6 90.8546C1536.13 93.5213 1547.6 93.9213 1555.33 91.788C1562.93 89.6547 1569.87 83.2546 1574.27 74.4546C1577.73 67.3879 1578 65.6546 1578 50.588C1578.13 34.3213 1578.13 34.188 1582 30.188C1585.47 26.5879 1586.13 26.3213 1587.47 28.188C1588.4 29.388 1589.73 34.1879 1590.53 38.7213ZM1858.53 38.7213C1861.2 53.6546 1859.6 66.588 1853.73 78.988C1849.33 88.4547 1838.27 98.588 1829.07 101.655C1816.13 106.055 1794.8 104.321 1786.93 98.4546L1783.87 96.0546L1787.87 92.3213L1791.87 88.4546L1797.6 90.8546C1804.13 93.5213 1815.6 93.9213 1823.33 91.788C1830.93 89.6547 1837.87 83.2546 1842.27 74.4546C1845.73 67.3879 1846 65.6546 1846 50.588C1846.13 34.3213 1846.13 34.188 1850 30.188C1853.47 26.5879 1854.13 26.3213 1855.47 28.188C1856.4 29.388 1857.73 34.1879 1858.53 38.7213ZM694.667 51.5213V56.8546H676.667H658.667V74.1879V91.5213H679.333H700V97.5213V103.521H673.333H646.667V74.8546V46.1879H670.667H694.667V51.5213Z" fill="white"/>
<path d="M36.5618 38.4667C32.1618 50.6 28.4285 61.4 28.0285 62.2C27.6285 63.5333 31.3618 63.9333 44.2951 63.9333C53.4952 63.9333 61.0952 63.5333 61.0952 62.8667C61.0952 62.3333 57.3618 51.6667 52.6952 39.1333L44.4285 16.4667L36.5618 38.4667Z" fill="black"/>
<path d="M531.762 29.1333V45.2666H539.495C556.028 45.2666 563.762 39.6666 563.762 27.9333C563.762 22.9999 562.962 20.4666 560.562 17.6666C557.495 14.1999 556.695 13.9333 544.562 13.5333L531.762 12.9999V29.1333Z" fill="black"/>
<path d="M531.762 73.8V91.9333H543.095C561.362 91.9333 569.095 86.8667 569.095 74.7333C569.095 61.6667 563.095 57.2667 544.295 56.2L531.762 55.5333V73.8Z" fill="black"/>
<path d="M1383.76 31.2666V49.2666H1394.03C1411.5 49.2666 1419.76 42.9999 1419.76 29.6666C1419.76 17.3999 1413.76 13.2666 1395.76 13.2666H1383.76V31.2666Z" fill="black"/>
<path d="M1667.76 29.1333V45.2666H1675.23C1691.63 45.2666 1699.76 39.5333 1699.76 27.9333C1699.76 22.9999 1698.96 20.4666 1696.56 17.6666C1693.5 14.1999 1692.7 13.9333 1680.56 13.5333L1667.76 12.9999V29.1333Z" fill="black"/>
<path d="M1667.76 73.9333V91.9333H1679.1C1686.03 91.9333 1692.3 91.1333 1695.1 90.0667C1704.16 86.2 1707.9 73.2667 1702.43 64.3333C1699.23 59 1689.9 55.9333 1676.83 55.9333H1667.76V73.9333Z" fill="black"/>
</svg>
