<?xml version="1.0" standalone="no"?>
<!DOCTYPE svg PUBLIC "-//W3C//DTD SVG 20010904//EN"
 "http://www.w3.org/TR/2001/REC-SVG-20010904/DTD/svg10.dtd">
<svg version="1.0" xmlns="http://www.w3.org/2000/svg"
 viewBox="0 0 2600.000000 2600.000000"
 preserveAspectRatio="xMidYMid meet">
<metadata>
Created by potrace 1.15, written by Peter Selinger 2001-2017
</metadata>
<g transform="translate(0.000000,2600.000000) scale(0.100000,-0.100000)"
fill="#000000" stroke="none">
<path d="M17595 21974 c-16 -2 -70 -9 -120 -15 -123 -15 -330 -69 -456 -119
-416 -164 -792 -482 -1113 -940 -305 -433 -577 -1038 -774 -1720 -22 -74 -43
-133 -48 -131 -5 2 -344 346 -752 765 -409 418 -781 798 -826 844 l-83 83
-2844 -2082 c-1564 -1145 -2854 -2090 -2866 -2099 l-22 -17 1086 -2052 c596
-1129 1083 -2054 1081 -2055 -2 -3 -2326 -1052 -2484 -1122 l-51 -23 -989 573
c-544 316 -991 572 -993 570 -5 -5 1683 -4664 1690 -4664 3 0 199 432 435 961
324 727 433 963 449 969 22 8 3186 393 3190 388 1 -2 548 -1036 1215 -2298
667 -1262 1216 -2299 1220 -2303 6 -6 8570 6252 8618 6297 11 10 -59 87 -368
402 -240 246 -379 395 -376 404 3 8 30 89 61 180 417 1220 466 2717 140 4264
-271 1285 -786 2510 -1434 3411 -317 441 -686 818 -1046 1072 -329 232 -692
384 -1043 439 -93 14 -435 27 -497 18z m354 -1700 c293 -110 673 -486 1003
-994 353 -542 674 -1263 877 -1965 223 -775 331 -1516 331 -2260 0 -352 -20
-627 -65 -924 -24 -157 -27 -172 -36 -169 -4 2 -762 775 -1684 1718 -922 943
-1724 1762 -1781 1820 l-104 105 25 145 c200 1144 571 2079 959 2419 152 133
309 167 475 105z"/>
<path d="M4849 11143 c-76 -69 -180 -247 -278 -475 -70 -164 -92 -251 -98
-388 -6 -134 7 -202 62 -318 125 -266 453 -331 653 -131 63 63 93 113 129 215
24 70 27 93 27 204 0 145 -20 236 -85 389 -116 271 -248 489 -319 526 -40 21
-45 20 -91 -22z"/>
<path d="M4100 9362 c-95 -99 -265 -431 -325 -637 -36 -122 -44 -273 -21 -379
59 -262 266 -426 488 -387 215 38 361 231 375 496 9 182 -38 340 -188 635
-112 219 -199 330 -259 330 -7 0 -39 -26 -70 -58z"/>
<path d="M5431 9384 c-99 -89 -288 -457 -351 -684 -20 -69 -24 -109 -24 -210
0 -110 3 -134 27 -204 15 -43 39 -98 53 -121 36 -63 119 -141 178 -169 258
-122 526 30 601 342 25 101 17 274 -18 392 -28 93 -115 291 -180 410 -94 172
-181 280 -227 280 -11 0 -38 -16 -59 -36z"/>
<path d="M3574 7480 c-99 -37 -345 -500 -401 -755 -93 -427 194 -792 540 -685
165 51 285 212 317 424 27 179 -21 368 -166 659 -80 159 -131 242 -186 302
-51 56 -71 67 -104 55z"/>
<path d="M4884 7480 c-84 -32 -304 -429 -379 -685 -54 -182 -44 -371 26 -521
159 -336 594 -336 753 -1 117 246 77 505 -140 916 -119 226 -198 313 -260 291z"/>
<path d="M6183 7470 c-94 -57 -313 -469 -374 -704 -102 -391 97 -745 419 -746
64 0 161 31 216 70 128 89 204 241 214 426 9 186 -33 333 -174 612 -100 199
-174 310 -227 342 -17 11 -34 20 -37 20 -3 0 -20 -9 -37 -20z"/>
<path d="M4121 5524 c-17 -14 -54 -60 -82 -102 -59 -87 -205 -381 -242 -488
-98 -277 -67 -543 84 -708 81 -89 185 -136 299 -136 202 0 361 143 421 378 33
129 21 286 -33 447 -61 184 -221 484 -307 577 -61 67 -91 74 -140 32z"/>
<path d="M5417 5505 c-83 -86 -248 -397 -314 -590 -72 -212 -68 -409 12 -571
86 -175 227 -263 404 -252 99 7 174 40 250 113 164 157 206 432 109 720 -28
83 -188 407 -239 484 -102 154 -148 174 -222 96z"/>
</g>
</svg>
